<?xml version="1.0" standalone="no"?>
<svg xmlns:xlink="http://www.w3.org/1999/xlink" id="wave" style="transform:rotate(0deg); transition: 0.3s" viewBox="0 0 1440 470" version="1.1" xmlns="http://www.w3.org/2000/svg"><defs><linearGradient id="sw-gradient-0" x1="0" x2="0" y1="1" y2="0"><stop stop-color="rgba(243, 106, 62, 1)" offset="0%"/><stop stop-color="rgba(255, 179, 11, 1)" offset="100%"/></linearGradient></defs><path style="transform:translate(0, 0px); opacity:1" fill="url(#sw-gradient-0)" d="M0,0L80,15.7C160,31,320,63,480,86.2C640,110,800,125,960,180.2C1120,235,1280,329,1440,313.3C1600,298,1760,172,1920,156.7C2080,141,2240,235,2400,242.8C2560,251,2720,172,2880,188C3040,204,3200,313,3360,321.2C3520,329,3680,235,3840,235C4000,235,4160,329,4320,336.8C4480,345,4640,266,4800,219.3C4960,172,5120,157,5280,172.3C5440,188,5600,235,5760,250.7C5920,266,6080,251,6240,258.5C6400,266,6560,298,6720,266.3C6880,235,7040,141,7200,117.5C7360,94,7520,141,7680,164.5C7840,188,8000,188,8160,211.5C8320,235,8480,282,8640,274.2C8800,266,8960,204,9120,172.3C9280,141,9440,141,9600,188C9760,235,9920,329,10080,368.2C10240,407,10400,392,10560,360.3C10720,329,10880,282,11040,235C11200,188,11360,141,11440,117.5L11520,94L11520,470L11440,470C11360,470,11200,470,11040,470C10880,470,10720,470,10560,470C10400,470,10240,470,10080,470C9920,470,9760,470,9600,470C9440,470,9280,470,9120,470C8960,470,8800,470,8640,470C8480,470,8320,470,8160,470C8000,470,7840,470,7680,470C7520,470,7360,470,7200,470C7040,470,6880,470,6720,470C6560,470,6400,470,6240,470C6080,470,5920,470,5760,470C5600,470,5440,470,5280,470C5120,470,4960,470,4800,470C4640,470,4480,470,4320,470C4160,470,4000,470,3840,470C3680,470,3520,470,3360,470C3200,470,3040,470,2880,470C2720,470,2560,470,2400,470C2240,470,2080,470,1920,470C1760,470,1600,470,1440,470C1280,470,1120,470,960,470C800,470,640,470,480,470C320,470,160,470,80,470L0,470Z"/><defs><linearGradient id="sw-gradient-1" x1="0" x2="0" y1="1" y2="0"><stop stop-color="rgba(243, 106, 62, 1)" offset="0%"/><stop stop-color="rgba(255, 179, 11, 1)" offset="100%"/></linearGradient></defs><path style="transform:translate(0, 50px); opacity:0.9" fill="url(#sw-gradient-1)" d="M0,282L80,297.7C160,313,320,345,480,352.5C640,360,800,345,960,344.7C1120,345,1280,360,1440,321.2C1600,282,1760,188,1920,172.3C2080,157,2240,219,2400,266.3C2560,313,2720,345,2880,344.7C3040,345,3200,313,3360,289.8C3520,266,3680,251,3840,274.2C4000,298,4160,360,4320,360.3C4480,360,4640,298,4800,274.2C4960,251,5120,266,5280,266.3C5440,266,5600,251,5760,235C5920,219,6080,204,6240,195.8C6400,188,6560,188,6720,164.5C6880,141,7040,94,7200,78.3C7360,63,7520,78,7680,125.3C7840,172,8000,251,8160,242.8C8320,235,8480,141,8640,141C8800,141,8960,235,9120,274.2C9280,313,9440,298,9600,313.3C9760,329,9920,376,10080,344.7C10240,313,10400,204,10560,203.7C10720,204,10880,313,11040,305.5C11200,298,11360,172,11440,109.7L11520,47L11520,470L11440,470C11360,470,11200,470,11040,470C10880,470,10720,470,10560,470C10400,470,10240,470,10080,470C9920,470,9760,470,9600,470C9440,470,9280,470,9120,470C8960,470,8800,470,8640,470C8480,470,8320,470,8160,470C8000,470,7840,470,7680,470C7520,470,7360,470,7200,470C7040,470,6880,470,6720,470C6560,470,6400,470,6240,470C6080,470,5920,470,5760,470C5600,470,5440,470,5280,470C5120,470,4960,470,4800,470C4640,470,4480,470,4320,470C4160,470,4000,470,3840,470C3680,470,3520,470,3360,470C3200,470,3040,470,2880,470C2720,470,2560,470,2400,470C2240,470,2080,470,1920,470C1760,470,1600,470,1440,470C1280,470,1120,470,960,470C800,470,640,470,480,470C320,470,160,470,80,470L0,470Z"/><defs><linearGradient id="sw-gradient-2" x1="0" x2="0" y1="1" y2="0"><stop stop-color="rgba(243, 106, 62, 1)" offset="0%"/><stop stop-color="rgba(255, 179, 11, 1)" offset="100%"/></linearGradient></defs><path style="transform:translate(0, 100px); opacity:0.8" fill="url(#sw-gradient-2)" d="M0,141L80,117.5C160,94,320,47,480,70.5C640,94,800,188,960,235C1120,282,1280,282,1440,235C1600,188,1760,94,1920,54.8C2080,16,2240,31,2400,39.2C2560,47,2720,47,2880,47C3040,47,3200,47,3360,62.7C3520,78,3680,110,3840,141C4000,172,4160,204,4320,227.2C4480,251,4640,266,4800,235C4960,204,5120,125,5280,78.3C5440,31,5600,16,5760,54.8C5920,94,6080,188,6240,250.7C6400,313,6560,345,6720,297.7C6880,251,7040,125,7200,133.2C7360,141,7520,282,7680,305.5C7840,329,8000,235,8160,235C8320,235,8480,329,8640,305.5C8800,282,8960,141,9120,70.5C9280,0,9440,0,9600,47C9760,94,9920,188,10080,227.2C10240,266,10400,251,10560,258.5C10720,266,10880,298,11040,274.2C11200,251,11360,172,11440,133.2L11520,94L11520,470L11440,470C11360,470,11200,470,11040,470C10880,470,10720,470,10560,470C10400,470,10240,470,10080,470C9920,470,9760,470,9600,470C9440,470,9280,470,9120,470C8960,470,8800,470,8640,470C8480,470,8320,470,8160,470C8000,470,7840,470,7680,470C7520,470,7360,470,7200,470C7040,470,6880,470,6720,470C6560,470,6400,470,6240,470C6080,470,5920,470,5760,470C5600,470,5440,470,5280,470C5120,470,4960,470,4800,470C4640,470,4480,470,4320,470C4160,470,4000,470,3840,470C3680,470,3520,470,3360,470C3200,470,3040,470,2880,470C2720,470,2560,470,2400,470C2240,470,2080,470,1920,470C1760,470,1600,470,1440,470C1280,470,1120,470,960,470C800,470,640,470,480,470C320,470,160,470,80,470L0,470Z"/></svg>