<?xml version="1.0" standalone="no"?>
<svg xmlns:xlink="http://www.w3.org/1999/xlink" id="wave" style="transform:rotate(0deg); transition: 0.3s" viewBox="0 0 1440 210" version="1.1" xmlns="http://www.w3.org/2000/svg"><defs><linearGradient id="sw-gradient-0" x1="0" x2="0" y1="1" y2="0"><stop stop-color="rgba(243, 106, 62, 1)" offset="0%"/><stop stop-color="rgba(255, 179, 11, 1)" offset="100%"/></linearGradient></defs><path style="transform:translate(0, 0px); opacity:1" fill="url(#sw-gradient-0)" d="M0,126L60,112C120,98,240,70,360,80.5C480,91,600,140,720,147C840,154,960,119,1080,112C1200,105,1320,126,1440,115.5C1560,105,1680,63,1800,52.5C1920,42,2040,63,2160,73.5C2280,84,2400,84,2520,80.5C2640,77,2760,70,2880,73.5C3000,77,3120,91,3240,105C3360,119,3480,133,3600,129.5C3720,126,3840,105,3960,87.5C4080,70,4200,56,4320,42C4440,28,4560,14,4680,28C4800,42,4920,84,5040,105C5160,126,5280,126,5400,112C5520,98,5640,70,5760,63C5880,56,6000,70,6120,94.5C6240,119,6360,154,6480,143.5C6600,133,6720,77,6840,63C6960,49,7080,77,7200,94.5C7320,112,7440,119,7560,115.5C7680,112,7800,98,7920,87.5C8040,77,8160,70,8280,84C8400,98,8520,133,8580,150.5L8640,168L8640,210L8580,210C8520,210,8400,210,8280,210C8160,210,8040,210,7920,210C7800,210,7680,210,7560,210C7440,210,7320,210,7200,210C7080,210,6960,210,6840,210C6720,210,6600,210,6480,210C6360,210,6240,210,6120,210C6000,210,5880,210,5760,210C5640,210,5520,210,5400,210C5280,210,5160,210,5040,210C4920,210,4800,210,4680,210C4560,210,4440,210,4320,210C4200,210,4080,210,3960,210C3840,210,3720,210,3600,210C3480,210,3360,210,3240,210C3120,210,3000,210,2880,210C2760,210,2640,210,2520,210C2400,210,2280,210,2160,210C2040,210,1920,210,1800,210C1680,210,1560,210,1440,210C1320,210,1200,210,1080,210C960,210,840,210,720,210C600,210,480,210,360,210C240,210,120,210,60,210L0,210Z"/><defs><linearGradient id="sw-gradient-1" x1="0" x2="0" y1="1" y2="0"><stop stop-color="rgba(243, 106, 62, 1)" offset="0%"/><stop stop-color="rgba(255, 179, 11, 1)" offset="100%"/></linearGradient></defs><path style="transform:translate(0, 50px); opacity:0.9" fill="url(#sw-gradient-1)" d="M0,84L60,84C120,84,240,84,360,73.5C480,63,600,42,720,35C840,28,960,35,1080,56C1200,77,1320,112,1440,129.5C1560,147,1680,147,1800,147C1920,147,2040,147,2160,133C2280,119,2400,91,2520,80.5C2640,70,2760,77,2880,91C3000,105,3120,126,3240,136.5C3360,147,3480,147,3600,133C3720,119,3840,91,3960,91C4080,91,4200,119,4320,112C4440,105,4560,63,4680,63C4800,63,4920,105,5040,115.5C5160,126,5280,105,5400,84C5520,63,5640,42,5760,52.5C5880,63,6000,105,6120,105C6240,105,6360,63,6480,49C6600,35,6720,49,6840,63C6960,77,7080,91,7200,98C7320,105,7440,105,7560,108.5C7680,112,7800,119,7920,133C8040,147,8160,168,8280,154C8400,140,8520,91,8580,66.5L8640,42L8640,210L8580,210C8520,210,8400,210,8280,210C8160,210,8040,210,7920,210C7800,210,7680,210,7560,210C7440,210,7320,210,7200,210C7080,210,6960,210,6840,210C6720,210,6600,210,6480,210C6360,210,6240,210,6120,210C6000,210,5880,210,5760,210C5640,210,5520,210,5400,210C5280,210,5160,210,5040,210C4920,210,4800,210,4680,210C4560,210,4440,210,4320,210C4200,210,4080,210,3960,210C3840,210,3720,210,3600,210C3480,210,3360,210,3240,210C3120,210,3000,210,2880,210C2760,210,2640,210,2520,210C2400,210,2280,210,2160,210C2040,210,1920,210,1800,210C1680,210,1560,210,1440,210C1320,210,1200,210,1080,210C960,210,840,210,720,210C600,210,480,210,360,210C240,210,120,210,60,210L0,210Z"/><defs><linearGradient id="sw-gradient-2" x1="0" x2="0" y1="1" y2="0"><stop stop-color="rgba(243, 106, 62, 1)" offset="0%"/><stop stop-color="rgba(255, 179, 11, 1)" offset="100%"/></linearGradient></defs><path style="transform:translate(0, 100px); opacity:0.8" fill="url(#sw-gradient-2)" d="M0,0L60,28C120,56,240,112,360,115.5C480,119,600,70,720,73.5C840,77,960,133,1080,140C1200,147,1320,105,1440,84C1560,63,1680,63,1800,70C1920,77,2040,91,2160,101.5C2280,112,2400,119,2520,112C2640,105,2760,84,2880,77C3000,70,3120,77,3240,98C3360,119,3480,154,3600,154C3720,154,3840,119,3960,119C4080,119,4200,154,4320,150.5C4440,147,4560,105,4680,73.5C4800,42,4920,21,5040,10.5C5160,0,5280,0,5400,14C5520,28,5640,56,5760,87.5C5880,119,6000,154,6120,140C6240,126,6360,63,6480,42C6600,21,6720,42,6840,49C6960,56,7080,49,7200,56C7320,63,7440,84,7560,101.5C7680,119,7800,133,7920,129.5C8040,126,8160,105,8280,98C8400,91,8520,98,8580,101.5L8640,105L8640,210L8580,210C8520,210,8400,210,8280,210C8160,210,8040,210,7920,210C7800,210,7680,210,7560,210C7440,210,7320,210,7200,210C7080,210,6960,210,6840,210C6720,210,6600,210,6480,210C6360,210,6240,210,6120,210C6000,210,5880,210,5760,210C5640,210,5520,210,5400,210C5280,210,5160,210,5040,210C4920,210,4800,210,4680,210C4560,210,4440,210,4320,210C4200,210,4080,210,3960,210C3840,210,3720,210,3600,210C3480,210,3360,210,3240,210C3120,210,3000,210,2880,210C2760,210,2640,210,2520,210C2400,210,2280,210,2160,210C2040,210,1920,210,1800,210C1680,210,1560,210,1440,210C1320,210,1200,210,1080,210C960,210,840,210,720,210C600,210,480,210,360,210C240,210,120,210,60,210L0,210Z"/></svg>